<svg width="2104" height="4745" viewBox="0 0 2104 4745" fill="none" xmlns="http://www.w3.org/2000/svg">
<path d="M2661.69 2471.32H1711.08L1618.14 2560.04H1246.34M2661.69 2526.24H1740.66L1449.14 2813.54H1326.62M2556.07 2416.39L2264.55 2695.24H1812.48L1525.19 2416.39H1106.92M2661.69 2302.32H2349.05L2264.55 2374.15H1711.08L1618.14 2302.32H1246.34M2661.69 2344.57H1740.66L1449.14 2036.15H1326.62" stroke="url(#paint0_linear_96_2019)" stroke-width="11.0527"/>
<path d="M2661.69 946.121H2108.23L1470.26 1579.86H1275.92L1106.92 1744.63L870.325 1596.76M2661.69 3.9644L1512.51 1123.57H1170.29L1018.2 967.246H625.279L228.137 950.346M2661.69 227.885L1512.51 1339.04H1060.45L916.799 1199.62H705.553L519.656 1398.19L228.137 1520.71M2661.69 1879.83H2370.17L2205.4 2027.7L1960.35 1922.08M2661.69 1748.86H2370.17L2205.4 1630.56M2661.69 3181.1H2433.54L2367.35 3126.18M2234.97 3016.33L2367.35 3126.18M2661.69 3126.18H2367.35M2367.35 3126.18L2057.53 3181.1M2661.69 3244.48H2327.92M2661.69 3899.34H2120.9L1449.14 3244.48H1149.17M2661.69 4642.93L1563.21 3523.32H1102.7L363.334 3295.18M2661.69 4575.33L2327.92 4224.66L2120.9 4182.41L1563.21 3941.59H1047.77M2661.69 4097.91H1449.14L764.702 3599.37" stroke="url(#paint1_linear_96_2019)" stroke-opacity="0.5" stroke-width="11.0693"/>
<path d="M1292.82 2855.79C1271.82 2855.79 1254.79 2838.76 1254.79 2817.76C1254.79 2796.76 1271.82 2779.74 1292.82 2779.74C1313.82 2779.74 1330.84 2796.76 1330.84 2817.76C1330.84 2838.76 1313.82 2855.79 1292.82 2855.79ZM1292.82 2838.89C1304.48 2838.89 1313.94 2829.43 1313.94 2817.77C1313.94 2806.1 1304.48 2796.64 1292.82 2796.64C1281.15 2796.64 1271.69 2806.1 1271.69 2817.77C1271.69 2829.43 1281.15 2838.89 1292.82 2838.89Z" fill="url(#paint2_linear_96_2019)" fill-opacity="0.9"/>
<path d="M1216.76 2602.29C1195.76 2602.29 1178.74 2585.27 1178.74 2564.27C1178.74 2543.26 1195.76 2526.24 1216.76 2526.24C1237.77 2526.24 1254.79 2543.26 1254.79 2564.27C1254.79 2585.27 1237.76 2602.29 1216.76 2602.29ZM1216.77 2585.39C1228.43 2585.39 1237.89 2575.93 1237.89 2564.26C1237.89 2552.6 1228.43 2543.14 1216.77 2543.14C1205.1 2543.14 1195.64 2552.6 1195.64 2564.26C1195.64 2575.93 1205.1 2585.39 1216.77 2585.39Z" fill="url(#paint3_linear_96_2019)" fill-opacity="0.9"/>
<path d="M1208.32 2340.34C1187.32 2340.34 1170.29 2323.32 1170.29 2302.32C1170.29 2281.32 1187.32 2264.3 1208.32 2264.3C1229.32 2264.3 1246.34 2281.32 1246.34 2302.32C1246.34 2323.32 1229.32 2340.34 1208.32 2340.34ZM1208.32 2323.45C1219.98 2323.45 1229.44 2313.99 1229.44 2302.32C1229.44 2290.66 1219.98 2281.2 1208.32 2281.2C1196.65 2281.2 1187.19 2290.66 1187.19 2302.32C1187.19 2313.99 1196.65 2323.45 1208.32 2323.45Z" fill="url(#paint4_linear_96_2019)" fill-opacity="0.9"/>
<path d="M1073.12 2458.64C1052.12 2458.64 1035.1 2441.62 1035.1 2420.62C1035.1 2399.62 1052.12 2382.59 1073.12 2382.59C1094.12 2382.59 1111.15 2399.62 1111.15 2420.62C1111.15 2441.62 1094.12 2458.64 1073.12 2458.64ZM1073.12 2441.74C1084.79 2441.74 1094.25 2432.28 1094.25 2420.62C1094.25 2408.95 1084.79 2399.49 1073.12 2399.49C1061.45 2399.49 1052 2408.95 1052 2420.62C1052 2432.28 1061.45 2441.74 1073.12 2441.74Z" fill="url(#paint5_linear_96_2019)" fill-opacity="0.9"/>
<path d="M1292.82 2078.4C1271.82 2078.4 1254.79 2061.38 1254.79 2040.38C1254.79 2019.38 1271.82 2002.35 1292.82 2002.35C1313.82 2002.35 1330.84 2019.38 1330.84 2040.38C1330.84 2061.38 1313.82 2078.4 1292.82 2078.4ZM1292.82 2061.5C1304.48 2061.5 1313.94 2052.05 1313.94 2040.38C1313.94 2028.71 1304.48 2019.25 1292.82 2019.25C1281.15 2019.25 1271.69 2028.71 1271.69 2040.38C1271.69 2052.05 1281.15 2061.5 1292.82 2061.5Z" fill="url(#paint6_linear_96_2019)" fill-opacity="0.9"/>
<g filter="url(#filter0_f_96_2019)">
<path d="M1297.04 2078.4C1318.04 2078.4 1335.07 2061.38 1335.07 2040.38C1335.07 2019.38 1318.04 2002.35 1297.04 2002.35C1276.04 2002.35 1259.02 2019.38 1259.02 2040.38C1259.02 2061.38 1276.04 2078.4 1297.04 2078.4ZM1297.05 2061.5C1285.38 2061.5 1275.92 2052.05 1275.92 2040.38C1275.92 2028.71 1285.38 2019.25 1297.05 2019.25C1308.71 2019.25 1318.17 2028.71 1318.17 2040.38C1318.17 2052.05 1308.71 2061.5 1297.05 2061.5Z" fill="#76E2F5"/>
</g>
<g filter="url(#filter1_f_96_2019)">
<path d="M1212.54 2340.34C1233.54 2340.34 1250.57 2323.32 1250.57 2302.32C1250.57 2281.32 1233.54 2264.3 1212.54 2264.3C1191.54 2264.3 1174.52 2281.32 1174.52 2302.32C1174.52 2323.32 1191.54 2340.34 1212.54 2340.34ZM1212.54 2323.45C1200.87 2323.45 1191.42 2313.99 1191.42 2302.32C1191.42 2290.66 1200.87 2281.2 1212.54 2281.2C1224.21 2281.2 1233.67 2290.66 1233.67 2302.32C1233.67 2313.99 1224.21 2323.45 1212.54 2323.45Z" fill="#76E2F5"/>
</g>
<g filter="url(#filter2_f_96_2019)">
<path d="M1077.34 2458.64C1098.34 2458.64 1115.37 2441.62 1115.37 2420.62C1115.37 2399.62 1098.34 2382.59 1077.34 2382.59C1056.34 2382.59 1039.32 2399.62 1039.32 2420.62C1039.32 2441.62 1056.34 2458.64 1077.34 2458.64ZM1077.35 2441.74C1065.68 2441.74 1056.23 2432.28 1056.23 2420.62C1056.23 2408.95 1065.68 2399.49 1077.35 2399.49C1089.02 2399.49 1098.48 2408.95 1098.48 2420.62C1098.48 2432.28 1089.02 2441.74 1077.35 2441.74Z" fill="#76E2F5"/>
</g>
<g filter="url(#filter3_f_96_2019)">
<path d="M1221 2602.29C1242 2602.29 1259.02 2585.27 1259.02 2564.27C1259.02 2543.27 1242 2526.24 1221 2526.24C1199.99 2526.24 1182.97 2543.26 1182.97 2564.27C1182.97 2585.27 1200 2602.29 1221 2602.29ZM1220.99 2585.39C1209.33 2585.39 1199.87 2575.93 1199.87 2564.26C1199.87 2552.6 1209.33 2543.14 1220.99 2543.14C1232.66 2543.14 1242.12 2552.6 1242.12 2564.26C1242.12 2575.93 1232.66 2585.39 1220.99 2585.39Z" fill="#76E2F5"/>
</g>
<g filter="url(#filter4_f_96_2019)">
<path d="M1297.04 2855.79C1318.04 2855.79 1335.07 2838.76 1335.07 2817.76C1335.07 2796.76 1318.04 2779.74 1297.04 2779.74C1276.04 2779.74 1259.02 2796.76 1259.02 2817.76C1259.02 2838.76 1276.04 2855.79 1297.04 2855.79ZM1297.05 2838.89C1285.38 2838.89 1275.92 2829.43 1275.92 2817.77C1275.92 2806.1 1285.38 2796.64 1297.05 2796.64C1308.71 2796.64 1318.17 2806.1 1318.17 2817.77C1318.17 2829.43 1308.71 2838.89 1297.05 2838.89Z" fill="#76E2F5"/>
</g>
<path d="M1009.75 3903.57C1030.75 3903.57 1047.77 3920.59 1047.77 3941.59C1047.77 3962.59 1030.75 3979.62 1009.75 3979.62C988.746 3979.62 971.722 3962.59 971.722 3941.59C971.722 3920.59 988.746 3903.57 1009.75 3903.57ZM1009.75 3920.47C998.082 3920.47 988.624 3929.93 988.624 3941.59C988.624 3953.26 998.082 3962.72 1009.75 3962.72C1021.42 3962.72 1030.87 3953.26 1030.87 3941.59C1030.87 3929.93 1021.42 3920.47 1009.75 3920.47Z" fill="url(#paint7_linear_96_2019)" fill-opacity="0.1"/>
<g filter="url(#filter5_f_96_2019)">
<path d="M1009.75 3903.57C1030.75 3903.57 1047.77 3920.59 1047.77 3941.59C1047.77 3962.59 1030.75 3979.62 1009.75 3979.62C988.746 3979.62 971.722 3962.59 971.722 3941.59C971.722 3920.59 988.746 3903.57 1009.75 3903.57ZM1009.75 3920.47C998.082 3920.47 988.624 3929.93 988.624 3941.59C988.624 3953.26 998.082 3962.72 1009.75 3962.72C1021.42 3962.72 1030.87 3953.26 1030.87 3941.59C1030.87 3929.93 1021.42 3920.47 1009.75 3920.47Z" fill="#76E2F5" fill-opacity="0.85"/>
</g>
<path d="M739.352 3540.22C760.352 3540.22 777.375 3557.25 777.375 3578.25C777.375 3599.25 760.352 3616.27 739.352 3616.27C718.352 3616.27 701.328 3599.25 701.328 3578.25C701.328 3557.25 718.352 3540.22 739.352 3540.22ZM739.354 3557.12C727.687 3557.12 718.229 3566.58 718.229 3578.25C718.229 3589.92 727.687 3599.37 739.354 3599.37C751.02 3599.37 760.478 3589.92 760.478 3578.25C760.478 3566.58 751.021 3557.12 739.354 3557.12Z" fill="url(#paint8_linear_96_2019)" fill-opacity="0.4"/>
<g filter="url(#filter6_f_96_2019)">
<path d="M739.352 3540.22C760.352 3540.22 777.375 3557.25 777.375 3578.25C777.375 3599.25 760.352 3616.27 739.352 3616.27C718.352 3616.27 701.328 3599.25 701.328 3578.25C701.328 3557.25 718.352 3540.22 739.352 3540.22ZM739.354 3557.12C727.687 3557.12 718.229 3566.58 718.229 3578.25C718.229 3589.92 727.687 3599.37 739.354 3599.37C751.02 3599.37 760.478 3589.92 760.478 3578.25C760.478 3566.58 751.021 3557.12 739.354 3557.12Z" fill="#76E2F5"/>
</g>
<path d="M333.757 3244.48C354.757 3244.48 371.782 3261.51 371.782 3282.51C371.782 3303.51 354.757 3320.53 333.757 3320.53C312.757 3320.53 295.733 3303.51 295.733 3282.51C295.733 3261.51 312.757 3244.48 333.757 3244.48ZM333.759 3261.38C322.092 3261.38 312.634 3270.84 312.634 3282.51C312.634 3294.17 322.093 3303.63 333.759 3303.63C345.426 3303.63 354.883 3294.17 354.883 3282.51C354.883 3270.84 345.426 3261.38 333.759 3261.38Z" fill="url(#paint9_linear_96_2019)" fill-opacity="0.9"/>
<g filter="url(#filter7_f_96_2019)">
<path d="M333.757 3244.48C354.757 3244.48 371.782 3261.51 371.782 3282.51C371.782 3303.51 354.757 3320.53 333.757 3320.53C312.757 3320.53 295.733 3303.51 295.733 3282.51C295.733 3261.51 312.757 3244.48 333.757 3244.48ZM333.759 3261.38C322.092 3261.38 312.634 3270.84 312.634 3282.51C312.634 3294.17 322.093 3303.63 333.759 3303.63C345.426 3303.63 354.883 3294.17 354.883 3282.51C354.883 3270.84 345.426 3261.38 333.759 3261.38Z" fill="#76E2F5"/>
</g>
<path d="M1119.59 3202.23C1140.59 3202.23 1157.62 3219.25 1157.62 3240.25C1157.62 3261.25 1140.59 3278.28 1119.59 3278.28C1098.59 3278.28 1081.57 3261.25 1081.57 3240.25C1081.57 3219.25 1098.59 3202.23 1119.59 3202.23ZM1119.6 3219.13C1107.93 3219.13 1098.47 3228.59 1098.47 3240.25C1098.47 3251.92 1107.93 3261.38 1119.6 3261.38C1131.26 3261.38 1140.72 3251.92 1140.72 3240.25C1140.72 3228.59 1131.26 3219.13 1119.6 3219.13Z" fill="url(#paint10_linear_96_2019)" fill-opacity="0.4"/>
<g filter="url(#filter8_f_96_2019)">
<path d="M1119.59 3202.23C1140.59 3202.23 1157.62 3219.25 1157.62 3240.25C1157.62 3261.25 1140.59 3278.28 1119.59 3278.28C1098.59 3278.28 1081.57 3261.25 1081.57 3240.25C1081.57 3219.25 1098.59 3202.23 1119.59 3202.23ZM1119.6 3219.13C1107.93 3219.13 1098.47 3228.59 1098.47 3240.25C1098.47 3251.92 1107.93 3261.38 1119.6 3261.38C1131.26 3261.38 1140.72 3251.92 1140.72 3240.25C1140.72 3228.59 1131.26 3219.13 1119.6 3219.13Z" fill="#76E2F5"/>
</g>
<path d="M2023.72 3151.53C2044.73 3151.53 2061.75 3168.55 2061.75 3189.55C2061.75 3210.55 2044.73 3227.58 2023.72 3227.58C2002.72 3227.58 1985.7 3210.55 1985.7 3189.55C1985.7 3168.55 2002.72 3151.53 2023.72 3151.53ZM2023.73 3168.43C2012.06 3168.43 2002.6 3177.88 2002.6 3189.55C2002.6 3201.22 2012.06 3210.68 2023.73 3210.68C2035.39 3210.68 2044.85 3201.22 2044.85 3189.55C2044.85 3177.88 2035.39 3168.43 2023.73 3168.43Z" fill="url(#paint11_linear_96_2019)" fill-opacity="0.18"/>
<g filter="url(#filter9_f_96_2019)">
<path d="M2023.72 3151.53C2044.73 3151.53 2061.75 3168.55 2061.75 3189.55C2061.75 3210.55 2044.73 3227.58 2023.72 3227.58C2002.72 3227.58 1985.7 3210.55 1985.7 3189.55C1985.7 3168.55 2002.72 3151.53 2023.72 3151.53ZM2023.73 3168.43C2012.06 3168.43 2002.6 3177.88 2002.6 3189.55C2002.6 3201.22 2012.06 3210.68 2023.73 3210.68C2035.39 3210.68 2044.85 3201.22 2044.85 3189.55C2044.85 3177.88 2035.39 3168.43 2023.73 3168.43Z" fill="#76E2F5" fill-opacity="0.54"/>
</g>
<g filter="url(#filter10_f_96_2019)">
<path d="M1930.78 1867.15C1951.78 1867.15 1968.8 1884.18 1968.8 1905.18C1968.8 1926.18 1951.78 1943.2 1930.78 1943.2C1909.78 1943.2 1892.75 1926.18 1892.75 1905.18C1892.75 1884.18 1909.78 1867.15 1930.78 1867.15ZM1930.78 1884.05C1919.11 1884.05 1909.66 1893.51 1909.66 1905.18C1909.66 1916.85 1919.11 1926.3 1930.78 1926.3C1942.45 1926.3 1951.91 1916.85 1951.91 1905.18C1951.91 1893.51 1942.45 1884.05 1930.78 1884.05Z" fill="#76E2F5" fill-opacity="0.5"/>
</g>
<path d="M840.749 1537.61C861.749 1537.61 878.773 1554.64 878.773 1575.64C878.773 1596.64 861.749 1613.66 840.749 1613.66C819.748 1613.66 802.724 1596.64 802.724 1575.64C802.724 1554.64 819.748 1537.61 840.749 1537.61ZM840.75 1554.51C829.084 1554.51 819.626 1563.97 819.625 1575.63C819.625 1587.3 829.084 1596.76 840.75 1596.76C852.417 1596.76 861.875 1587.3 861.875 1575.63C861.874 1563.97 852.417 1554.51 840.75 1554.51Z" fill="url(#paint12_linear_96_2019)" fill-opacity="0.3"/>
<g filter="url(#filter11_f_96_2019)">
<path d="M840.749 1537.61C861.749 1537.61 878.773 1554.64 878.773 1575.64C878.773 1596.64 861.749 1613.66 840.749 1613.66C819.748 1613.66 802.724 1596.64 802.724 1575.64C802.724 1554.64 819.748 1537.61 840.749 1537.61ZM840.75 1554.51C829.084 1554.51 819.626 1563.97 819.625 1575.63C819.625 1587.3 829.084 1596.76 840.75 1596.76C852.417 1596.76 861.875 1587.3 861.875 1575.63C861.874 1563.97 852.417 1554.51 840.75 1554.51Z" fill="#76E2F5"/>
</g>
<path d="M198.557 1495.36C219.557 1495.36 236.582 1512.39 236.582 1533.39C236.582 1554.39 219.557 1571.41 198.557 1571.41C177.557 1571.41 160.533 1554.39 160.533 1533.39C160.533 1512.39 177.557 1495.36 198.557 1495.36ZM198.564 1512.26C186.897 1512.26 177.439 1521.72 177.439 1533.39C177.439 1545.05 186.897 1554.51 198.564 1554.51C210.231 1554.51 219.688 1545.05 219.688 1533.39C219.688 1521.72 210.231 1512.26 198.564 1512.26Z" fill="url(#paint13_linear_96_2019)" fill-opacity="0.84"/>
<g filter="url(#filter12_f_96_2019)">
<path d="M198.557 1495.36C219.557 1495.36 236.582 1512.39 236.582 1533.39C236.582 1554.39 219.557 1571.41 198.557 1571.41C177.557 1571.41 160.533 1554.39 160.533 1533.39C160.533 1512.39 177.557 1495.36 198.557 1495.36ZM198.564 1512.26C186.897 1512.26 177.439 1521.72 177.439 1533.39C177.439 1545.05 186.897 1554.51 198.564 1554.51C210.231 1554.51 219.688 1545.05 219.688 1533.39C219.688 1521.72 210.231 1512.26 198.564 1512.26Z" fill="#76E2F5" fill-opacity="0.96"/>
</g>
<path d="M190.111 912.321C211.111 912.321 228.135 929.345 228.135 950.346C228.135 971.346 211.111 988.37 190.111 988.37C169.111 988.37 152.086 971.346 152.086 950.346C152.086 929.345 169.111 912.321 190.111 912.321ZM190.113 929.219C178.446 929.219 168.988 938.676 168.988 950.343C168.988 962.01 178.446 971.468 190.113 971.468C201.78 971.468 211.238 962.01 211.238 950.343C211.238 938.676 201.779 929.219 190.113 929.219Z" fill="url(#paint14_linear_96_2019)" fill-opacity="0.24"/>
<g filter="url(#filter13_f_96_2019)">
<path d="M190.111 912.321C211.111 912.321 228.135 929.345 228.135 950.346C228.135 971.346 211.111 988.37 190.111 988.37C169.111 988.37 152.086 971.346 152.086 950.346C152.086 929.345 169.111 912.321 190.111 912.321ZM190.113 929.219C178.446 929.219 168.988 938.676 168.988 950.343C168.988 962.01 178.446 971.468 190.113 971.468C201.78 971.468 211.238 962.01 211.238 950.343C211.238 938.676 201.779 929.219 190.113 929.219Z" fill="#76E2F5" fill-opacity="0.75"/>
</g>
<g filter="url(#filter14_if_96_2019)">
<circle cx="857.654" cy="3007.88" r="38.0243" fill="#18CBFE"/>
</g>
<g filter="url(#filter15_f_96_2019)">
<circle cx="857.66" cy="3016.33" r="21.1246" fill="#71DFFF"/>
</g>
<g filter="url(#filter16_f_96_2019)">
<circle cx="857.66" cy="3016.33" r="21.1246" fill="#A4E8FC"/>
</g>
<g filter="url(#filter17_f_96_2019)">
<ellipse cx="861.88" cy="3012.11" rx="67.5987" ry="59.1489" fill="white"/>
</g>
<g filter="url(#filter18_f_96_2019)">
<ellipse cx="861.88" cy="3012.11" rx="67.5987" ry="59.1489" fill="#24BAFF"/>
</g>
<g filter="url(#filter19_f_96_2019)">
<circle cx="861.884" cy="3012.11" r="33.7994" fill="white"/>
</g>
<g filter="url(#filter20_if_96_2019)">
<circle cx="857.654" cy="1833.36" r="38.0243" fill="#18CBFE"/>
</g>
<g filter="url(#filter21_f_96_2019)">
<circle cx="857.66" cy="1841.81" r="21.1246" fill="#71DFFF"/>
</g>
<g filter="url(#filter22_f_96_2019)">
<circle cx="857.66" cy="1841.81" r="21.1246" fill="#A4E8FC"/>
</g>
<g filter="url(#filter23_f_96_2019)">
<ellipse cx="861.88" cy="1837.58" rx="67.5987" ry="59.1489" fill="white"/>
</g>
<g filter="url(#filter24_f_96_2019)">
<ellipse cx="861.88" cy="1837.58" rx="67.5987" ry="59.1489" fill="#24BAFF"/>
</g>
<g filter="url(#filter25_f_96_2019)">
<circle cx="861.884" cy="1837.58" r="33.7994" fill="white"/>
</g>
<g filter="url(#filter26_if_96_2019)">
<circle cx="1423.79" cy="2416.39" r="38.0243" fill="#18CBFE"/>
</g>
<g filter="url(#filter27_f_96_2019)">
<circle cx="1423.79" cy="2424.84" r="21.1246" fill="#71DFFF"/>
</g>
<g filter="url(#filter28_f_96_2019)">
<circle cx="1423.79" cy="2424.84" r="21.1246" fill="#A4E8FC"/>
</g>
<g filter="url(#filter29_f_96_2019)">
<ellipse cx="1428.01" cy="2420.62" rx="67.5987" ry="59.1489" fill="white"/>
</g>
<g filter="url(#filter30_f_96_2019)">
<ellipse cx="1428.01" cy="2420.62" rx="67.5987" ry="59.1489" fill="#24BAFF"/>
</g>
<g filter="url(#filter31_f_96_2019)">
<circle cx="1428.02" cy="2420.62" r="33.7994" fill="white"/>
</g>
<g filter="url(#filter32_if_96_2019)">
<circle cx="156.321" cy="1275.66" r="38.0243" fill="#18CBFE"/>
</g>
<g filter="url(#filter33_f_96_2019)">
<circle cx="156.322" cy="1284.11" r="21.1246" fill="#71DFFF"/>
</g>
<g filter="url(#filter34_f_96_2019)">
<circle cx="156.322" cy="1284.11" r="21.1246" fill="#A4E8FC"/>
</g>
<g filter="url(#filter35_f_96_2019)">
<ellipse cx="160.547" cy="1279.89" rx="67.5987" ry="59.1489" fill="white"/>
</g>
<g filter="url(#filter36_f_96_2019)">
<ellipse cx="160.547" cy="1279.89" rx="67.5987" ry="59.1489" fill="#24BAFF"/>
</g>
<g filter="url(#filter37_f_96_2019)">
<circle cx="160.546" cy="1279.89" r="33.7994" fill="white"/>
</g>
<g filter="url(#filter38_f_96_2019)">
<ellipse cx="2196.95" cy="3012.11" rx="67.5987" ry="59.1489" fill="white"/>
</g>
<g filter="url(#filter39_f_96_2019)">
<ellipse cx="2196.95" cy="3012.11" rx="67.5987" ry="59.1489" fill="#24BAFF"/>
</g>
<g filter="url(#filter40_if_96_2019)">
<circle cx="181.664" cy="3540.22" r="38.0243" fill="#18CBFE"/>
</g>
<g filter="url(#filter41_f_96_2019)">
<circle cx="181.671" cy="3548.67" r="21.1246" fill="#71DFFF"/>
</g>
<g filter="url(#filter42_f_96_2019)">
<circle cx="181.671" cy="3548.67" r="21.1246" fill="#A4E8FC"/>
</g>
<g filter="url(#filter43_f_96_2019)">
<ellipse cx="185.891" cy="3544.45" rx="67.5987" ry="59.1489" fill="white"/>
</g>
<g filter="url(#filter44_f_96_2019)">
<ellipse cx="185.891" cy="3544.45" rx="67.5987" ry="59.1489" fill="#24BAFF"/>
</g>
<g filter="url(#filter45_f_96_2019)">
<circle cx="185.89" cy="3544.44" r="33.7994" fill="white"/>
</g>
<path d="M2671.34 71.5576L1545.45 1211.55H1104.45L946.396 1073.39H650.182L435.759 1275.66H160.546" stroke="white" stroke-opacity="0.7" stroke-width="25.3495"/>
<path d="M871.523 1837.58H1137.69L1281.34 1685.48H1475.69L2147.45 1009.49H2671.34M1433.44 2424.84H2662.89M2210.82 3012.1H2671.34M871.523 3012.1H1137.69L1281.34 3159.98H1475.69L2147.45 3819.06H2675.56M195.536 3535.99H457.481L639.153 3743.01H960.246L1103.89 3603.59H1530.61C1966.19 4037.52 2239.98 4301.94 2675.56 4735.87" stroke="white" stroke-opacity="0.9" stroke-width="25.3495"/>
<defs>
<filter id="filter0_f_96_2019" x="1237.05" y="1980.38" width="119.988" height="119.988" filterUnits="userSpaceOnUse" color-interpolation-filters="sRGB">
<feFlood flood-opacity="0" result="BackgroundImageFix"/>
<feBlend mode="normal" in="SourceGraphic" in2="BackgroundImageFix" result="shape"/>
<feGaussianBlur stdDeviation="10.9848" result="effect1_foregroundBlur_96_2019"/>
</filter>
<filter id="filter1_f_96_2019" x="1152.55" y="2242.33" width="119.988" height="119.988" filterUnits="userSpaceOnUse" color-interpolation-filters="sRGB">
<feFlood flood-opacity="0" result="BackgroundImageFix"/>
<feBlend mode="normal" in="SourceGraphic" in2="BackgroundImageFix" result="shape"/>
<feGaussianBlur stdDeviation="10.9848" result="effect1_foregroundBlur_96_2019"/>
</filter>
<filter id="filter2_f_96_2019" x="1017.35" y="2360.62" width="119.988" height="119.988" filterUnits="userSpaceOnUse" color-interpolation-filters="sRGB">
<feFlood flood-opacity="0" result="BackgroundImageFix"/>
<feBlend mode="normal" in="SourceGraphic" in2="BackgroundImageFix" result="shape"/>
<feGaussianBlur stdDeviation="10.9848" result="effect1_foregroundBlur_96_2019"/>
</filter>
<filter id="filter3_f_96_2019" x="1161" y="2504.27" width="119.988" height="119.987" filterUnits="userSpaceOnUse" color-interpolation-filters="sRGB">
<feFlood flood-opacity="0" result="BackgroundImageFix"/>
<feBlend mode="normal" in="SourceGraphic" in2="BackgroundImageFix" result="shape"/>
<feGaussianBlur stdDeviation="10.9848" result="effect1_foregroundBlur_96_2019"/>
</filter>
<filter id="filter4_f_96_2019" x="1237.05" y="2757.77" width="119.988" height="119.987" filterUnits="userSpaceOnUse" color-interpolation-filters="sRGB">
<feFlood flood-opacity="0" result="BackgroundImageFix"/>
<feBlend mode="normal" in="SourceGraphic" in2="BackgroundImageFix" result="shape"/>
<feGaussianBlur stdDeviation="10.9848" result="effect1_foregroundBlur_96_2019"/>
</filter>
<filter id="filter5_f_96_2019" x="949.753" y="3881.6" width="119.988" height="119.988" filterUnits="userSpaceOnUse" color-interpolation-filters="sRGB">
<feFlood flood-opacity="0" result="BackgroundImageFix"/>
<feBlend mode="normal" in="SourceGraphic" in2="BackgroundImageFix" result="shape"/>
<feGaussianBlur stdDeviation="10.9848" result="effect1_foregroundBlur_96_2019"/>
</filter>
<filter id="filter6_f_96_2019" x="679.358" y="3518.25" width="119.987" height="119.987" filterUnits="userSpaceOnUse" color-interpolation-filters="sRGB">
<feFlood flood-opacity="0" result="BackgroundImageFix"/>
<feBlend mode="normal" in="SourceGraphic" in2="BackgroundImageFix" result="shape"/>
<feGaussianBlur stdDeviation="10.9848" result="effect1_foregroundBlur_96_2019"/>
</filter>
<filter id="filter7_f_96_2019" x="273.763" y="3222.51" width="119.988" height="119.988" filterUnits="userSpaceOnUse" color-interpolation-filters="sRGB">
<feFlood flood-opacity="0" result="BackgroundImageFix"/>
<feBlend mode="normal" in="SourceGraphic" in2="BackgroundImageFix" result="shape"/>
<feGaussianBlur stdDeviation="10.9848" result="effect1_foregroundBlur_96_2019"/>
</filter>
<filter id="filter8_f_96_2019" x="1059.6" y="3180.26" width="119.988" height="119.988" filterUnits="userSpaceOnUse" color-interpolation-filters="sRGB">
<feFlood flood-opacity="0" result="BackgroundImageFix"/>
<feBlend mode="normal" in="SourceGraphic" in2="BackgroundImageFix" result="shape"/>
<feGaussianBlur stdDeviation="10.9848" result="effect1_foregroundBlur_96_2019"/>
</filter>
<filter id="filter9_f_96_2019" x="1963.73" y="3129.56" width="119.988" height="119.988" filterUnits="userSpaceOnUse" color-interpolation-filters="sRGB">
<feFlood flood-opacity="0" result="BackgroundImageFix"/>
<feBlend mode="normal" in="SourceGraphic" in2="BackgroundImageFix" result="shape"/>
<feGaussianBlur stdDeviation="10.9848" result="effect1_foregroundBlur_96_2019"/>
</filter>
<filter id="filter10_f_96_2019" x="1870.79" y="1845.18" width="119.988" height="119.988" filterUnits="userSpaceOnUse" color-interpolation-filters="sRGB">
<feFlood flood-opacity="0" result="BackgroundImageFix"/>
<feBlend mode="normal" in="SourceGraphic" in2="BackgroundImageFix" result="shape"/>
<feGaussianBlur stdDeviation="10.9848" result="effect1_foregroundBlur_96_2019"/>
</filter>
<filter id="filter11_f_96_2019" x="780.755" y="1515.64" width="119.988" height="119.988" filterUnits="userSpaceOnUse" color-interpolation-filters="sRGB">
<feFlood flood-opacity="0" result="BackgroundImageFix"/>
<feBlend mode="normal" in="SourceGraphic" in2="BackgroundImageFix" result="shape"/>
<feGaussianBlur stdDeviation="10.9848" result="effect1_foregroundBlur_96_2019"/>
</filter>
<filter id="filter12_f_96_2019" x="138.563" y="1473.39" width="119.988" height="119.988" filterUnits="userSpaceOnUse" color-interpolation-filters="sRGB">
<feFlood flood-opacity="0" result="BackgroundImageFix"/>
<feBlend mode="normal" in="SourceGraphic" in2="BackgroundImageFix" result="shape"/>
<feGaussianBlur stdDeviation="10.9848" result="effect1_foregroundBlur_96_2019"/>
</filter>
<filter id="filter13_f_96_2019" x="130.117" y="890.352" width="119.988" height="119.988" filterUnits="userSpaceOnUse" color-interpolation-filters="sRGB">
<feFlood flood-opacity="0" result="BackgroundImageFix"/>
<feBlend mode="normal" in="SourceGraphic" in2="BackgroundImageFix" result="shape"/>
<feGaussianBlur stdDeviation="10.9848" result="effect1_foregroundBlur_96_2019"/>
</filter>
<filter id="filter14_if_96_2019" x="778.226" y="2928.45" width="158.857" height="158.857" filterUnits="userSpaceOnUse" color-interpolation-filters="sRGB">
<feFlood flood-opacity="0" result="BackgroundImageFix"/>
<feBlend mode="normal" in="SourceGraphic" in2="BackgroundImageFix" result="shape"/>
<feColorMatrix in="SourceAlpha" type="matrix" values="0 0 0 0 0 0 0 0 0 0 0 0 0 0 0 0 0 0 127 0" result="hardAlpha"/>
<feOffset dy="33.7994"/>
<feGaussianBlur stdDeviation="16.8997"/>
<feComposite in2="hardAlpha" operator="arithmetic" k2="-1" k3="1"/>
<feColorMatrix type="matrix" values="0 0 0 0 0 0 0 0 0 0 0 0 0 0 0 0 0 0 0.25 0"/>
<feBlend mode="normal" in2="shape" result="effect1_innerShadow_96_2019"/>
<feGaussianBlur stdDeviation="14.3647" result="effect2_foregroundBlur_96_2019"/>
</filter>
<filter id="filter15_f_96_2019" x="828.086" y="2986.76" width="59.1487" height="59.1487" filterUnits="userSpaceOnUse" color-interpolation-filters="sRGB">
<feFlood flood-opacity="0" result="BackgroundImageFix"/>
<feBlend mode="normal" in="SourceGraphic" in2="BackgroundImageFix" result="shape"/>
<feGaussianBlur stdDeviation="4.22492" result="effect1_foregroundBlur_96_2019"/>
</filter>
<filter id="filter16_f_96_2019" x="828.086" y="2986.76" width="59.1487" height="59.1487" filterUnits="userSpaceOnUse" color-interpolation-filters="sRGB">
<feFlood flood-opacity="0" result="BackgroundImageFix"/>
<feBlend mode="normal" in="SourceGraphic" in2="BackgroundImageFix" result="shape"/>
<feGaussianBlur stdDeviation="4.22492" result="effect1_foregroundBlur_96_2019"/>
</filter>
<filter id="filter17_f_96_2019" x="701.334" y="2860.01" width="321.094" height="304.194" filterUnits="userSpaceOnUse" color-interpolation-filters="sRGB">
<feFlood flood-opacity="0" result="BackgroundImageFix"/>
<feBlend mode="normal" in="SourceGraphic" in2="BackgroundImageFix" result="shape"/>
<feGaussianBlur stdDeviation="46.4741" result="effect1_foregroundBlur_96_2019"/>
</filter>
<filter id="filter18_f_96_2019" x="701.334" y="2860.01" width="321.094" height="304.194" filterUnits="userSpaceOnUse" color-interpolation-filters="sRGB">
<feFlood flood-opacity="0" result="BackgroundImageFix"/>
<feBlend mode="normal" in="SourceGraphic" in2="BackgroundImageFix" result="shape"/>
<feGaussianBlur stdDeviation="46.4741" result="effect1_foregroundBlur_96_2019"/>
</filter>
<filter id="filter19_f_96_2019" x="812.03" y="2962.25" width="99.708" height="99.708" filterUnits="userSpaceOnUse" color-interpolation-filters="sRGB">
<feFlood flood-opacity="0" result="BackgroundImageFix"/>
<feBlend mode="normal" in="SourceGraphic" in2="BackgroundImageFix" result="shape"/>
<feGaussianBlur stdDeviation="8.02735" result="effect1_foregroundBlur_96_2019"/>
</filter>
<filter id="filter20_if_96_2019" x="778.226" y="1753.93" width="158.857" height="158.857" filterUnits="userSpaceOnUse" color-interpolation-filters="sRGB">
<feFlood flood-opacity="0" result="BackgroundImageFix"/>
<feBlend mode="normal" in="SourceGraphic" in2="BackgroundImageFix" result="shape"/>
<feColorMatrix in="SourceAlpha" type="matrix" values="0 0 0 0 0 0 0 0 0 0 0 0 0 0 0 0 0 0 127 0" result="hardAlpha"/>
<feOffset dy="33.7994"/>
<feGaussianBlur stdDeviation="16.8997"/>
<feComposite in2="hardAlpha" operator="arithmetic" k2="-1" k3="1"/>
<feColorMatrix type="matrix" values="0 0 0 0 0 0 0 0 0 0 0 0 0 0 0 0 0 0 0.25 0"/>
<feBlend mode="normal" in2="shape" result="effect1_innerShadow_96_2019"/>
<feGaussianBlur stdDeviation="14.3647" result="effect2_foregroundBlur_96_2019"/>
</filter>
<filter id="filter21_f_96_2019" x="828.086" y="1812.23" width="59.1487" height="59.1487" filterUnits="userSpaceOnUse" color-interpolation-filters="sRGB">
<feFlood flood-opacity="0" result="BackgroundImageFix"/>
<feBlend mode="normal" in="SourceGraphic" in2="BackgroundImageFix" result="shape"/>
<feGaussianBlur stdDeviation="4.22492" result="effect1_foregroundBlur_96_2019"/>
</filter>
<filter id="filter22_f_96_2019" x="828.086" y="1812.23" width="59.1487" height="59.1487" filterUnits="userSpaceOnUse" color-interpolation-filters="sRGB">
<feFlood flood-opacity="0" result="BackgroundImageFix"/>
<feBlend mode="normal" in="SourceGraphic" in2="BackgroundImageFix" result="shape"/>
<feGaussianBlur stdDeviation="4.22492" result="effect1_foregroundBlur_96_2019"/>
</filter>
<filter id="filter23_f_96_2019" x="701.334" y="1685.48" width="321.094" height="304.194" filterUnits="userSpaceOnUse" color-interpolation-filters="sRGB">
<feFlood flood-opacity="0" result="BackgroundImageFix"/>
<feBlend mode="normal" in="SourceGraphic" in2="BackgroundImageFix" result="shape"/>
<feGaussianBlur stdDeviation="46.4741" result="effect1_foregroundBlur_96_2019"/>
</filter>
<filter id="filter24_f_96_2019" x="701.334" y="1685.48" width="321.094" height="304.194" filterUnits="userSpaceOnUse" color-interpolation-filters="sRGB">
<feFlood flood-opacity="0" result="BackgroundImageFix"/>
<feBlend mode="normal" in="SourceGraphic" in2="BackgroundImageFix" result="shape"/>
<feGaussianBlur stdDeviation="46.4741" result="effect1_foregroundBlur_96_2019"/>
</filter>
<filter id="filter25_f_96_2019" x="812.03" y="1787.73" width="99.708" height="99.708" filterUnits="userSpaceOnUse" color-interpolation-filters="sRGB">
<feFlood flood-opacity="0" result="BackgroundImageFix"/>
<feBlend mode="normal" in="SourceGraphic" in2="BackgroundImageFix" result="shape"/>
<feGaussianBlur stdDeviation="8.02735" result="effect1_foregroundBlur_96_2019"/>
</filter>
<filter id="filter26_if_96_2019" x="1344.36" y="2336.96" width="158.857" height="158.857" filterUnits="userSpaceOnUse" color-interpolation-filters="sRGB">
<feFlood flood-opacity="0" result="BackgroundImageFix"/>
<feBlend mode="normal" in="SourceGraphic" in2="BackgroundImageFix" result="shape"/>
<feColorMatrix in="SourceAlpha" type="matrix" values="0 0 0 0 0 0 0 0 0 0 0 0 0 0 0 0 0 0 127 0" result="hardAlpha"/>
<feOffset dy="33.7994"/>
<feGaussianBlur stdDeviation="16.8997"/>
<feComposite in2="hardAlpha" operator="arithmetic" k2="-1" k3="1"/>
<feColorMatrix type="matrix" values="0 0 0 0 0 0 0 0 0 0 0 0 0 0 0 0 0 0 0.25 0"/>
<feBlend mode="normal" in2="shape" result="effect1_innerShadow_96_2019"/>
<feGaussianBlur stdDeviation="14.3647" result="effect2_foregroundBlur_96_2019"/>
</filter>
<filter id="filter27_f_96_2019" x="1394.22" y="2395.27" width="59.1489" height="59.1487" filterUnits="userSpaceOnUse" color-interpolation-filters="sRGB">
<feFlood flood-opacity="0" result="BackgroundImageFix"/>
<feBlend mode="normal" in="SourceGraphic" in2="BackgroundImageFix" result="shape"/>
<feGaussianBlur stdDeviation="4.22492" result="effect1_foregroundBlur_96_2019"/>
</filter>
<filter id="filter28_f_96_2019" x="1394.22" y="2395.27" width="59.1489" height="59.1487" filterUnits="userSpaceOnUse" color-interpolation-filters="sRGB">
<feFlood flood-opacity="0" result="BackgroundImageFix"/>
<feBlend mode="normal" in="SourceGraphic" in2="BackgroundImageFix" result="shape"/>
<feGaussianBlur stdDeviation="4.22492" result="effect1_foregroundBlur_96_2019"/>
</filter>
<filter id="filter29_f_96_2019" x="1267.47" y="2268.52" width="321.094" height="304.194" filterUnits="userSpaceOnUse" color-interpolation-filters="sRGB">
<feFlood flood-opacity="0" result="BackgroundImageFix"/>
<feBlend mode="normal" in="SourceGraphic" in2="BackgroundImageFix" result="shape"/>
<feGaussianBlur stdDeviation="46.4741" result="effect1_foregroundBlur_96_2019"/>
</filter>
<filter id="filter30_f_96_2019" x="1267.47" y="2268.52" width="321.094" height="304.194" filterUnits="userSpaceOnUse" color-interpolation-filters="sRGB">
<feFlood flood-opacity="0" result="BackgroundImageFix"/>
<feBlend mode="normal" in="SourceGraphic" in2="BackgroundImageFix" result="shape"/>
<feGaussianBlur stdDeviation="46.4741" result="effect1_foregroundBlur_96_2019"/>
</filter>
<filter id="filter31_f_96_2019" x="1378.16" y="2370.76" width="99.708" height="99.708" filterUnits="userSpaceOnUse" color-interpolation-filters="sRGB">
<feFlood flood-opacity="0" result="BackgroundImageFix"/>
<feBlend mode="normal" in="SourceGraphic" in2="BackgroundImageFix" result="shape"/>
<feGaussianBlur stdDeviation="8.02735" result="effect1_foregroundBlur_96_2019"/>
</filter>
<filter id="filter32_if_96_2019" x="76.8922" y="1196.23" width="158.857" height="158.857" filterUnits="userSpaceOnUse" color-interpolation-filters="sRGB">
<feFlood flood-opacity="0" result="BackgroundImageFix"/>
<feBlend mode="normal" in="SourceGraphic" in2="BackgroundImageFix" result="shape"/>
<feColorMatrix in="SourceAlpha" type="matrix" values="0 0 0 0 0 0 0 0 0 0 0 0 0 0 0 0 0 0 127 0" result="hardAlpha"/>
<feOffset dy="33.7994"/>
<feGaussianBlur stdDeviation="16.8997"/>
<feComposite in2="hardAlpha" operator="arithmetic" k2="-1" k3="1"/>
<feColorMatrix type="matrix" values="0 0 0 0 0 0 0 0 0 0 0 0 0 0 0 0 0 0 0.25 0"/>
<feBlend mode="normal" in2="shape" result="effect1_innerShadow_96_2019"/>
<feGaussianBlur stdDeviation="14.3647" result="effect2_foregroundBlur_96_2019"/>
</filter>
<filter id="filter33_f_96_2019" x="126.748" y="1254.54" width="59.1487" height="59.1487" filterUnits="userSpaceOnUse" color-interpolation-filters="sRGB">
<feFlood flood-opacity="0" result="BackgroundImageFix"/>
<feBlend mode="normal" in="SourceGraphic" in2="BackgroundImageFix" result="shape"/>
<feGaussianBlur stdDeviation="4.22492" result="effect1_foregroundBlur_96_2019"/>
</filter>
<filter id="filter34_f_96_2019" x="126.748" y="1254.54" width="59.1487" height="59.1487" filterUnits="userSpaceOnUse" color-interpolation-filters="sRGB">
<feFlood flood-opacity="0" result="BackgroundImageFix"/>
<feBlend mode="normal" in="SourceGraphic" in2="BackgroundImageFix" result="shape"/>
<feGaussianBlur stdDeviation="4.22492" result="effect1_foregroundBlur_96_2019"/>
</filter>
<filter id="filter35_f_96_2019" x="1.52588e-05" y="1127.79" width="321.094" height="304.194" filterUnits="userSpaceOnUse" color-interpolation-filters="sRGB">
<feFlood flood-opacity="0" result="BackgroundImageFix"/>
<feBlend mode="normal" in="SourceGraphic" in2="BackgroundImageFix" result="shape"/>
<feGaussianBlur stdDeviation="46.4741" result="effect1_foregroundBlur_96_2019"/>
</filter>
<filter id="filter36_f_96_2019" x="1.52588e-05" y="1127.79" width="321.094" height="304.194" filterUnits="userSpaceOnUse" color-interpolation-filters="sRGB">
<feFlood flood-opacity="0" result="BackgroundImageFix"/>
<feBlend mode="normal" in="SourceGraphic" in2="BackgroundImageFix" result="shape"/>
<feGaussianBlur stdDeviation="46.4741" result="effect1_foregroundBlur_96_2019"/>
</filter>
<filter id="filter37_f_96_2019" x="110.692" y="1230.03" width="99.708" height="99.708" filterUnits="userSpaceOnUse" color-interpolation-filters="sRGB">
<feFlood flood-opacity="0" result="BackgroundImageFix"/>
<feBlend mode="normal" in="SourceGraphic" in2="BackgroundImageFix" result="shape"/>
<feGaussianBlur stdDeviation="8.02735" result="effect1_foregroundBlur_96_2019"/>
</filter>
<filter id="filter38_f_96_2019" x="2036.41" y="2860.01" width="321.094" height="304.194" filterUnits="userSpaceOnUse" color-interpolation-filters="sRGB">
<feFlood flood-opacity="0" result="BackgroundImageFix"/>
<feBlend mode="normal" in="SourceGraphic" in2="BackgroundImageFix" result="shape"/>
<feGaussianBlur stdDeviation="46.4741" result="effect1_foregroundBlur_96_2019"/>
</filter>
<filter id="filter39_f_96_2019" x="2036.41" y="2860.01" width="321.094" height="304.194" filterUnits="userSpaceOnUse" color-interpolation-filters="sRGB">
<feFlood flood-opacity="0" result="BackgroundImageFix"/>
<feBlend mode="normal" in="SourceGraphic" in2="BackgroundImageFix" result="shape"/>
<feGaussianBlur stdDeviation="46.4741" result="effect1_foregroundBlur_96_2019"/>
</filter>
<filter id="filter40_if_96_2019" x="102.236" y="3460.79" width="158.857" height="158.857" filterUnits="userSpaceOnUse" color-interpolation-filters="sRGB">
<feFlood flood-opacity="0" result="BackgroundImageFix"/>
<feBlend mode="normal" in="SourceGraphic" in2="BackgroundImageFix" result="shape"/>
<feColorMatrix in="SourceAlpha" type="matrix" values="0 0 0 0 0 0 0 0 0 0 0 0 0 0 0 0 0 0 127 0" result="hardAlpha"/>
<feOffset dy="33.7994"/>
<feGaussianBlur stdDeviation="16.8997"/>
<feComposite in2="hardAlpha" operator="arithmetic" k2="-1" k3="1"/>
<feColorMatrix type="matrix" values="0 0 0 0 0 0 0 0 0 0 0 0 0 0 0 0 0 0 0.25 0"/>
<feBlend mode="normal" in2="shape" result="effect1_innerShadow_96_2019"/>
<feGaussianBlur stdDeviation="14.3647" result="effect2_foregroundBlur_96_2019"/>
</filter>
<filter id="filter41_f_96_2019" x="152.096" y="3519.1" width="59.1487" height="59.1487" filterUnits="userSpaceOnUse" color-interpolation-filters="sRGB">
<feFlood flood-opacity="0" result="BackgroundImageFix"/>
<feBlend mode="normal" in="SourceGraphic" in2="BackgroundImageFix" result="shape"/>
<feGaussianBlur stdDeviation="4.22492" result="effect1_foregroundBlur_96_2019"/>
</filter>
<filter id="filter42_f_96_2019" x="152.096" y="3519.1" width="59.1487" height="59.1487" filterUnits="userSpaceOnUse" color-interpolation-filters="sRGB">
<feFlood flood-opacity="0" result="BackgroundImageFix"/>
<feBlend mode="normal" in="SourceGraphic" in2="BackgroundImageFix" result="shape"/>
<feGaussianBlur stdDeviation="4.22492" result="effect1_foregroundBlur_96_2019"/>
</filter>
<filter id="filter43_f_96_2019" x="25.3438" y="3392.35" width="321.094" height="304.194" filterUnits="userSpaceOnUse" color-interpolation-filters="sRGB">
<feFlood flood-opacity="0" result="BackgroundImageFix"/>
<feBlend mode="normal" in="SourceGraphic" in2="BackgroundImageFix" result="shape"/>
<feGaussianBlur stdDeviation="46.4741" result="effect1_foregroundBlur_96_2019"/>
</filter>
<filter id="filter44_f_96_2019" x="25.3438" y="3392.35" width="321.094" height="304.194" filterUnits="userSpaceOnUse" color-interpolation-filters="sRGB">
<feFlood flood-opacity="0" result="BackgroundImageFix"/>
<feBlend mode="normal" in="SourceGraphic" in2="BackgroundImageFix" result="shape"/>
<feGaussianBlur stdDeviation="46.4741" result="effect1_foregroundBlur_96_2019"/>
</filter>
<filter id="filter45_f_96_2019" x="136.036" y="3494.59" width="99.708" height="99.708" filterUnits="userSpaceOnUse" color-interpolation-filters="sRGB">
<feFlood flood-opacity="0" result="BackgroundImageFix"/>
<feBlend mode="normal" in="SourceGraphic" in2="BackgroundImageFix" result="shape"/>
<feGaussianBlur stdDeviation="8.02735" result="effect1_foregroundBlur_96_2019"/>
</filter>
<linearGradient id="paint0_linear_96_2019" x1="1884.3" y1="2813.54" x2="1884.3" y2="2036.15" gradientUnits="userSpaceOnUse">
<stop stop-color="#0B6CEF"/>
<stop offset="0.5" stop-color="#564FFD"/>
<stop offset="1" stop-color="#CD3DFF"/>
</linearGradient>
<linearGradient id="paint1_linear_96_2019" x1="1444.91" y1="4642.93" x2="1444.91" y2="3.96436" gradientUnits="userSpaceOnUse">
<stop stop-color="#0B6CEF" stop-opacity="0.4"/>
<stop offset="0.5" stop-color="#564FFD"/>
<stop offset="1" stop-color="#CD3DFF" stop-opacity="0.4"/>
</linearGradient>
<linearGradient id="paint2_linear_96_2019" x1="1292.82" y1="2855.79" x2="1292.82" y2="2779.74" gradientUnits="userSpaceOnUse">
<stop stop-color="#16DBFD"/>
<stop offset="1" stop-color="#1BABFF"/>
</linearGradient>
<linearGradient id="paint3_linear_96_2019" x1="1216.76" y1="2602.29" x2="1216.76" y2="2526.24" gradientUnits="userSpaceOnUse">
<stop stop-color="#16DBFD"/>
<stop offset="1" stop-color="#1BABFF"/>
</linearGradient>
<linearGradient id="paint4_linear_96_2019" x1="1208.32" y1="2340.34" x2="1208.32" y2="2264.3" gradientUnits="userSpaceOnUse">
<stop stop-color="#16DBFD"/>
<stop offset="1" stop-color="#1BABFF"/>
</linearGradient>
<linearGradient id="paint5_linear_96_2019" x1="1073.12" y1="2458.64" x2="1073.12" y2="2382.59" gradientUnits="userSpaceOnUse">
<stop stop-color="#16DBFD"/>
<stop offset="1" stop-color="#1BABFF"/>
</linearGradient>
<linearGradient id="paint6_linear_96_2019" x1="1292.82" y1="2078.4" x2="1292.82" y2="2002.35" gradientUnits="userSpaceOnUse">
<stop stop-color="#16DBFD"/>
<stop offset="1" stop-color="#1BABFF"/>
</linearGradient>
<linearGradient id="paint7_linear_96_2019" x1="1009.75" y1="3903.57" x2="1009.75" y2="3979.62" gradientUnits="userSpaceOnUse">
<stop stop-color="#16DBFD"/>
<stop offset="1" stop-color="#1BABFF"/>
</linearGradient>
<linearGradient id="paint8_linear_96_2019" x1="739.352" y1="3540.22" x2="739.352" y2="3616.27" gradientUnits="userSpaceOnUse">
<stop stop-color="#16DBFD"/>
<stop offset="1" stop-color="#1BABFF"/>
</linearGradient>
<linearGradient id="paint9_linear_96_2019" x1="333.757" y1="3244.48" x2="333.757" y2="3320.53" gradientUnits="userSpaceOnUse">
<stop stop-color="#16DBFD"/>
<stop offset="1" stop-color="#1BABFF"/>
</linearGradient>
<linearGradient id="paint10_linear_96_2019" x1="1119.59" y1="3202.23" x2="1119.59" y2="3278.28" gradientUnits="userSpaceOnUse">
<stop stop-color="#16DBFD"/>
<stop offset="1" stop-color="#1BABFF"/>
</linearGradient>
<linearGradient id="paint11_linear_96_2019" x1="2023.72" y1="3151.53" x2="2023.72" y2="3227.58" gradientUnits="userSpaceOnUse">
<stop stop-color="#16DBFD"/>
<stop offset="1" stop-color="#1BABFF"/>
</linearGradient>
<linearGradient id="paint12_linear_96_2019" x1="840.749" y1="1537.61" x2="840.749" y2="1613.66" gradientUnits="userSpaceOnUse">
<stop stop-color="#16DBFD"/>
<stop offset="1" stop-color="#1BABFF"/>
</linearGradient>
<linearGradient id="paint13_linear_96_2019" x1="198.557" y1="1495.36" x2="198.557" y2="1571.41" gradientUnits="userSpaceOnUse">
<stop stop-color="#16DBFD"/>
<stop offset="1" stop-color="#1BABFF"/>
</linearGradient>
<linearGradient id="paint14_linear_96_2019" x1="190.111" y1="912.321" x2="190.111" y2="988.37" gradientUnits="userSpaceOnUse">
<stop stop-color="#16DBFD"/>
<stop offset="1" stop-color="#1BABFF"/>
</linearGradient>
</defs>
</svg>
